<!DOCTYPE svg PUBLIC "-//W3C//DTD SVG 1.1//EN" "http://www.w3.org/Graphics/SVG/1.1/DTD/svg11.dtd">
<!-- Uploaded to: SVG Repo, www.svgrepo.com, Transformed by: SVG Repo Mixer Tools -->
<svg height="64px" width="64px" version="1.1" id="Layer_1" xmlns="http://www.w3.org/2000/svg" xmlns:xlink="http://www.w3.org/1999/xlink" viewBox="0 0 512 512" xml:space="preserve" fill="#000000">
<g id="SVGRepo_bgCarrier" stroke-width="0"/>
<g id="SVGRepo_tracerCarrier" stroke-linecap="round" stroke-linejoin="round"/>
<g id="SVGRepo_iconCarrier"> <path style="fill:#7DF5A5;" d="M486.013,424.086H25.987c-9.772,0-17.693-7.921-17.693-17.693V105.607 c0-9.772,7.921-17.693,17.693-17.693h460.026c9.772,0,17.693,7.921,17.693,17.693v300.786 C503.706,416.165,495.785,424.086,486.013,424.086z"/> <path style="fill:#8C50D7;" d="M459.473,326.773H52.527c-4.886,0-8.847-3.961-8.847-8.847V140.994c0-4.886,3.961-8.847,8.847-8.847 h406.946c4.886,0,8.847,3.961,8.847,8.847v176.933C468.32,322.812,464.359,326.773,459.473,326.773z"/> <path style="fill:#FF507D;" d="M459.473,132.147H52.527c-4.886,0-8.847,3.961-8.847,8.847v61.927H468.32v-61.927 C468.32,136.108,464.359,132.147,459.473,132.147z"/> <path style="fill:#FFFFFF;" d="M371.006,264.847H140.994c-19.543,0-35.387-15.843-35.387-35.387l0,0 c0-19.543,15.843-35.387,35.387-35.387h230.013c19.543,0,35.387,15.843,35.387,35.387l0,0 C406.393,249.003,390.55,264.847,371.006,264.847z"/> <g> <path style="fill:#464655;" d="M105.607,229.46c0,19.543,15.843,35.387,35.387,35.387h61.228 c6.036-10.418,9.546-22.48,9.546-35.387s-3.51-24.969-9.546-35.387h-61.228C121.45,194.073,105.607,209.917,105.607,229.46z"/> <path style="fill:#464655;" d="M371.006,194.073h-99.989c-3.923,11.083-6.171,22.959-6.171,35.387s2.246,24.304,6.171,35.387 h99.989c19.544,0,35.387-15.843,35.387-35.387S390.551,194.073,371.006,194.073z"/> </g> <path style="fill:#64DCA0;" d="M393.296,372.883c-2.788-6.506-9.186-10.723-16.263-10.723H134.967 c-7.077,0-13.475,4.218-16.262,10.723L96.76,424.086H415.24L393.296,372.883z"/> <g> <circle style="fill:#FFFFFF;" cx="140.994" cy="229.46" r="35.387"/> <circle style="fill:#FFFFFF;" cx="371.006" cy="229.46" r="35.387"/> </g> <path d="M486.013,79.62H25.987C11.658,79.62,0,91.278,0,105.607v300.786c0,14.329,11.658,25.987,25.987,25.987h460.026 c14.329,0,25.987-11.658,25.987-25.987V105.607C512,91.278,500.342,79.62,486.013,79.62z M109.338,415.793l16.99-39.643 c1.483-3.46,4.875-5.696,8.64-5.696h242.065c3.765,0,7.156,2.236,8.64,5.697l16.989,39.642H109.338z M495.413,406.393 c0,5.183-4.217,9.4-9.4,9.4h-65.305l-19.79-46.176c-4.1-9.568-13.476-15.75-23.886-15.75H134.967 c-10.41,0-19.786,6.183-23.886,15.75l-19.789,46.176H25.987c-5.183,0-9.4-4.217-9.4-9.4V105.607c0-5.183,4.217-9.4,9.4-9.4h460.026 c5.183,0,9.4,4.217,9.4,9.4V406.393z"/> <path d="M379.852,140.441h17.689c4.58,0,8.294-3.713,8.294-8.294s-3.713-8.294-8.294-8.294h-17.689c-4.58,0-8.294,3.713-8.294,8.294 S375.271,140.441,379.852,140.441z"/> <path d="M87.91,318.479H52.527c-0.305,0-0.553-0.248-0.553-0.553V140.994c0-0.305,0.248-0.553,0.553-0.553h291.94 c4.58,0,8.294-3.713,8.294-8.294s-3.713-8.294-8.294-8.294H52.527c-9.452,0-17.14,7.689-17.14,17.14v176.933 c0,9.452,7.689,17.14,17.14,17.14H87.91c4.58,0,8.294-3.713,8.294-8.294S92.491,318.479,87.91,318.479z"/> <path d="M459.473,123.853h-26.54c-4.58,0-8.294,3.713-8.294,8.294s3.713,8.294,8.294,8.294h26.54c0.305,0,0.553,0.248,0.553,0.553 v176.933c0,0.305-0.248,0.553-0.553,0.553H123.304c-4.58,0-8.294,3.713-8.294,8.294s3.713,8.294,8.294,8.294h336.169 c9.452,0,17.14-7.689,17.14-17.14V140.994C476.613,131.542,468.925,123.853,459.473,123.853z"/> <path d="M149.929,389.253h-0.088c-4.58,0-8.25,3.713-8.25,8.294s3.758,8.294,8.338,8.294s8.294-3.713,8.294-8.294 S154.509,389.253,149.929,389.253z"/> <path d="M362.248,389.253h-0.088c-4.58,0-8.25,3.713-8.25,8.294s3.758,8.294,8.338,8.294s8.294-3.713,8.294-8.294 S366.829,389.253,362.248,389.253z"/> <path d="M371.006,273.14c24.085,0,43.68-19.595,43.68-43.68s-19.595-43.68-43.68-43.68H140.994c-24.085,0-43.68,19.595-43.68,43.68 s19.595,43.68,43.68,43.68H371.006z M197.301,202.367c4.045,8.407,6.172,17.68,6.172,27.093c0,9.4-2.128,18.692-6.168,27.093 h-22.086c5.912-7.452,9.456-16.864,9.456-27.093s-3.544-19.641-9.456-27.093H197.301z M336.782,202.367 c-5.912,7.452-9.456,16.864-9.456,27.093s3.544,19.641,9.456,27.093h-59.823c-2.522-8.768-3.818-17.853-3.818-27.093 c0-9.239,1.296-18.324,3.817-27.093H336.782z M259.804,256.553h-44.522c3.144-8.64,4.778-17.828,4.778-27.093 c0-9.279-1.64-18.455-4.785-27.093h44.529c-2.145,8.828-3.251,17.897-3.251,27.093C256.553,238.657,257.66,247.725,259.804,256.553z M398.099,229.46c0,14.939-12.154,27.093-27.093,27.093s-27.093-12.154-27.093-27.093s12.154-27.093,27.093-27.093 S398.099,214.521,398.099,229.46z M113.901,229.46c0-14.939,12.154-27.093,27.093-27.093s27.093,12.154,27.093,27.093 s-12.154,27.093-27.093,27.093S113.901,244.399,113.901,229.46z"/> </g>
</svg>