<!DOCTYPE svg PUBLIC "-//W3C//DTD SVG 1.1//EN" "http://www.w3.org/Graphics/SVG/1.1/DTD/svg11.dtd">
<!-- Uploaded to: SVG Repo, www.svgrepo.com, Transformed by: SVG Repo Mixer Tools -->
<svg width="800px" height="800px" viewBox="0 0 32 32" xmlns="http://www.w3.org/2000/svg" fill="#000000">
<g id="SVGRepo_bgCarrier" stroke-width="0"/>
<g id="SVGRepo_tracerCarrier" stroke-linecap="round" stroke-linejoin="round"/>
<g id="SVGRepo_iconCarrier"> <defs> <style>.cls-1{fill:#FDD1D1;}.cls-2{fill:#C36C5B;}.cls-3{fill:#FDD1D1;}</style> </defs> <title/> <g data-name="01" id="_01"> <circle class="cls-1" cx="16" cy="16" r="13"/> <path class="cls-2" d="M16,30A14,14,0,1,1,30,16a1,1,0,0,1-2,0,12,12,0,1,0-.52,3.52,1,1,0,1,1,1.91.58A13.92,13.92,0,0,1,16,30Z"/> <rect class="cls-3" height="8" width="8" x="12" y="12"/> <path class="cls-2" d="M20,21H12a1,1,0,0,1-1-1V12a1,1,0,0,1,1-1h8a1,1,0,0,1,1,1v8A1,1,0,0,1,20,21Zm-7-2h6V13H13Z"/> </g> </g>
</svg>